<svg data-testid="FacebookIcon" aria-hidden="true" version="1.1" xmlns="http://www.w3.org/2000/svg" xmlns:xlink="http://www.w3.org/1999/xlink" fill="currentColor" viewBox="0 0 24 24" class="SvgIcon__Icon-sc-9dg20d-0 SvgIcon-sc-9dg20d-1 jKEaHr bpPyjG"><path d="M20 12C20 7.58125 16.4187 4 12 4C7.58125 4 4 7.58125 4 12C4 16.4187 7.58125 20 12 20C12.0469 20 12.0938 20 12.1406 19.9969V13.7719H10.4219V11.7688H12.1406V10.2937C12.1406 8.58437 13.1844 7.65313 14.7094 7.65313C15.4406 7.65313 16.0688 7.70625 16.25 7.73125V9.51875H15.2C14.3719 9.51875 14.2094 9.9125 14.2094 10.4906V11.7656H16.1938L15.9344 13.7688H14.2094V19.6906C17.5531 18.7312 20 15.6531 20 12Z"></path></svg>
