<svg data-testid="InstagramIcon" aria-hidden="true" version="1.1" xmlns="http://www.w3.org/2000/svg" xmlns:xlink="http://www.w3.org/1999/xlink" fill="currentColor" viewBox="0 0 24 24" class="SvgIcon__Icon-sc-9dg20d-0 SvgIcon-sc-9dg20d-1 jKEaHr bpPyjG"><path d="M13.5312 12C13.5312 12.8457 12.8457 13.5312 12 13.5312C11.1543 13.5312 10.4688 12.8457 10.4688 12C10.4688 11.1543 11.1543 10.4688 12 10.4688C12.8457 10.4688 13.5312 11.1543 13.5312 12Z"></path><path d="M15.5811 9.29077C15.5074 9.09131 15.39 8.91077 15.2374 8.76257C15.0892 8.60999 14.9088 8.49255 14.7092 8.41895C14.5474 8.35608 14.3042 8.28125 13.8563 8.26086C13.3718 8.23877 13.2266 8.23401 12 8.23401C10.7733 8.23401 10.6281 8.23865 10.1437 8.26074C9.6958 8.28125 9.45251 8.35608 9.29077 8.41895C9.09119 8.49255 8.91064 8.60999 8.76257 8.76257C8.60999 8.91077 8.49255 9.09119 8.41882 9.29077C8.35596 9.45264 8.28113 9.69592 8.26074 10.1438C8.23865 10.6282 8.23389 10.7734 8.23389 12.0001C8.23389 13.2267 8.23865 13.372 8.26074 13.8564C8.28113 14.3043 8.35596 14.5475 8.41882 14.7094C8.49255 14.9089 8.60986 15.0894 8.76245 15.2376C8.91064 15.3901 9.09106 15.5076 9.29065 15.5812C9.45251 15.6442 9.6958 15.719 10.1437 15.7394C10.6281 15.7615 10.7732 15.7661 11.9999 15.7661C13.2267 15.7661 13.3719 15.7615 13.8562 15.7394C14.3041 15.719 14.5474 15.6442 14.7092 15.5812C15.1099 15.4266 15.4265 15.11 15.5811 14.7094C15.6439 14.5475 15.7188 14.3043 15.7393 13.8564C15.7614 13.372 15.766 13.2267 15.766 12.0001C15.766 10.7734 15.7614 10.6282 15.7393 10.1438C15.7189 9.69592 15.644 9.45264 15.5811 9.29077ZM12 14.3589C10.6971 14.3589 9.64099 13.3029 9.64099 12C9.64099 10.6971 10.6971 9.64111 12 9.64111C13.3027 9.64111 14.3589 10.6971 14.3589 12C14.3589 13.3029 13.3027 14.3589 12 14.3589ZM14.4521 10.0991C14.1477 10.0991 13.9009 9.8523 13.9009 9.54785C13.9009 9.24341 14.1477 8.99658 14.4521 8.99658C14.7566 8.99658 15.0034 9.24341 15.0034 9.54785C15.0033 9.8523 14.7566 10.0991 14.4521 10.0991Z"></path><path d="M12 4C7.5824 4 4 7.5824 4 12C4 16.4176 7.5824 20 12 20C16.4176 20 20 16.4176 20 12C20 7.5824 16.4176 4 12 4ZM16.566 13.8939C16.5438 14.3829 16.4661 14.7168 16.3525 15.009C16.1139 15.6261 15.6261 16.1139 15.009 16.3525C14.7169 16.4661 14.3829 16.5437 13.894 16.566C13.4042 16.5884 13.2477 16.5938 12.0001 16.5938C10.7524 16.5938 10.5961 16.5884 10.1061 16.566C9.61719 16.5437 9.2832 16.4661 8.99109 16.3525C8.68445 16.2372 8.40686 16.0564 8.17737 15.8226C7.94373 15.5933 7.76294 15.3156 7.64758 15.009C7.53406 14.7169 7.4563 14.3829 7.43408 13.894C7.4115 13.4041 7.40625 13.2476 7.40625 12C7.40625 10.7524 7.4115 10.5959 7.43396 10.1061C7.45618 9.61707 7.53381 9.2832 7.64734 8.99097C7.7627 8.68445 7.9436 8.40674 8.17737 8.17737C8.40674 7.9436 8.68445 7.76282 8.99097 7.64746C9.2832 7.53394 9.61707 7.4563 10.1061 7.43396C10.5959 7.41162 10.7524 7.40625 12 7.40625C13.2476 7.40625 13.4041 7.41162 13.8939 7.43408C14.3829 7.4563 14.7168 7.53394 15.009 7.64734C15.3156 7.7627 15.5933 7.9436 15.8228 8.17737C16.0564 8.40686 16.2373 8.68445 16.3525 8.99097C16.4662 9.2832 16.5438 9.61707 16.5662 10.1061C16.5885 10.5959 16.5938 10.7524 16.5938 12C16.5938 13.2476 16.5885 13.4041 16.566 13.8939Z"></path></svg>