<svg data-testid="YoutubeIcon" aria-hidden="true" version="1.1" xmlns="http://www.w3.org/2000/svg" xmlns:xlink="http://www.w3.org/1999/xlink" fill="currentColor" viewBox="0 0 24 24" class="SvgIcon__Icon-sc-9dg20d-0 SvgIcon-sc-9dg20d-1 jKEaHr bpPyjG"><path d="M11 13.4988L13.6023 12L11 10.5012V13.4988Z"></path><path d="M12 4C7.5824 4 4 7.5824 4 12C4 16.4176 7.5824 20 12 20C16.4176 20 20 16.4176 20 12C20 7.5824 16.4176 4 12 4ZM16.9988 12.0082C16.9988 12.0082 16.9988 13.6306 16.793 14.413C16.6776 14.8412 16.34 15.1788 15.9117 15.2941C15.1294 15.5 12 15.5 12 15.5C12 15.5 8.87878 15.5 8.08826 15.2859C7.66003 15.1707 7.32239 14.8329 7.20703 14.4047C7.0011 13.6306 7.0011 12 7.0011 12C7.0011 12 7.0011 10.3777 7.20703 9.59534C7.32227 9.16711 7.66821 8.82117 8.08826 8.70593C8.87061 8.5 12 8.5 12 8.5C12 8.5 15.1294 8.5 15.9117 8.71411C16.34 8.82935 16.6776 9.16711 16.793 9.59534C17.0071 10.3777 16.9988 12.0082 16.9988 12.0082Z"></path></svg>