<svg data-testid="ArrowLeftIcon" aria-hidden="true" version="1.1" xmlns="http://www.w3.org/2000/svg" xmlns:xlink="http://www.w3.org/1999/xlink" fill="currentColor" viewBox="0 0 24 24" class="SvgIcon__Icon-sc-9dg20d-0 SvgIcon-sc-9dg20d-1 jKEaHr bpPyjG"><path fill-rule="evenodd" clip-rule="evenodd" d="M8 12.0027C8.00067 12.2533 8.09348 12.4822 8.24635 12.6573L14.2346 19.6436C14.418 19.8615 14.6928 20 15 20C15.5523 20 16 19.5523 16 19C16 18.7515 15.9093 18.5241 15.7593 18.3492L10.3171 12L15.7537 5.65725C15.9071 5.4815 16 5.2516 16 5C16 4.44771 15.5523 4 15 4C14.6963 4 14.4241 4.13542 14.2407 4.34917L8.24074 11.3492L8.23466 11.3563C8.0894 11.5289 8.00142 11.7512 8.00002 11.9941L8 12L8 12.0027Z"></path></svg>