<svg data-testid="ArrowRightIcon" aria-hidden="true" version="1.1" xmlns="http://www.w3.org/2000/svg" xmlns:xlink="http://www.w3.org/1999/xlink" fill="currentColor" viewBox="0 0 24 24" class="SvgIcon__Icon-sc-9dg20d-0 SvgIcon-sc-9dg20d-1 jKEaHr bpPyjG"><path fill-rule="evenodd" clip-rule="evenodd" d="M16 12.0027C15.9993 12.2533 15.9065 12.4822 15.7537 12.6573L9.76541 19.6436C9.58197 19.8615 9.30716 20 9 20C8.44772 20 8 19.5523 8 19C8 18.7515 8.09067 18.5241 8.24075 18.3492L13.6829 12L8.24631 5.65725C8.09292 5.4815 8 5.2516 8 5C8 4.44771 8.44772 4 9 4C9.30374 4 9.57586 4.13542 9.75926 4.34917L15.7593 11.3492L15.7653 11.3563C15.9106 11.5289 15.9986 11.7512 16 11.9941L16 12L16 12.0027Z"></path></svg>